Coordinates
version=1
nRows=11
nColumns=63
inDegrees=yes

Units are S.I. units (second, meters, Newtons, ...)
If the header above contains a line with 'inDegrees', this indicates whether rotational values are in degrees (yes) or radians (no).

endheader
time	pelvis_tilt	pelvis_list	pelvis_rotation	pelvis_tx	pelvis_ty	pelvis_tz	hip_flexion_r	hip_adduction_r	hip_rotation_r	knee_angle_r	knee_angle_r_beta	ankle_angle_r	subtalar_angle_r	mtp_angle_r	hip_flexion_l	hip_adduction_l	hip_rotation_l	knee_angle_l	knee_angle_l_beta	ankle_angle_l	subtalar_angle_l	mtp_angle_l	L5_S1_Flex_Ext	L5_S1_Lat_Bending	L5_S1_axial_rotation	L4_L5_Flex_Ext	L4_L5_Lat_Bending	L4_L5_axial_rotation	L3_L4_Flex_Ext	L3_L4_Lat_Bending	L3_L4_axial_rotation	L2_L3_Flex_Ext	L2_L3_Lat_Bending	L2_L3_axial_rotation	L1_L2_Flex_Ext	L1_L2_Lat_Bending	L1_L2_axial_rotation	L1_T12_Flex_Ext	L1_T12_Lat_Bending	L1_T12_axial_rotation	Abs_r3	Abs_r2	Abs_r1	Abs_t1	Abs_t2	neck_flexion	neck_bending	neck_rotation	arm_flex_r	arm_add_r	arm_rot_r	elbow_flex_r	pro_sup_r	wrist_flex_r	wrist_dev_r	arm_flex_l	arm_add_l	arm_rot_l	elbow_flex_l	pro_sup_l	wrist_flex_l	wrist_dev_l
3.800000	5.617655	-8.902527	96.791300	0.113118	1.085644	-0.063666	5.506847	3.416582	-0.568837	15.317639	0.267343	33.671711	-10.926379	0.000000	-0.925736	-3.137263	18.535893	0.378988	0.006615	31.445768	-11.375848	0.000000	0.064762	0.197930	-1.848883	0.120270	0.263247	-1.964439	0.106398	0.481248	-1.964439	0.074017	0.481248	-1.617773	0.060138	0.403620	-1.502218	0.037005	0.306594	-1.386663	0.462591	2.239028	-10.282934	0.000000	0.000000	22.534419	-3.383038	-6.459039	-17.341932	-13.149275	-20.490187	123.439478	77.705987	-13.932675	3.449419	14.900646	-3.768596	46.635650	81.877469	88.424746	1.112847	9.286291
3.816667	5.498936	-8.926227	97.134968	0.112443	1.085501	-0.062856	5.413882	3.223394	-1.284223	15.099318	0.263533	33.698730	-10.613221	0.000000	-0.961414	-3.008908	19.466977	0.248820	0.004343	31.025106	-12.212624	0.000000	0.074629	0.165639	-1.911109	0.138594	0.220300	-2.030553	0.122608	0.402734	-2.030553	0.085294	0.402734	-1.672220	0.069301	0.337771	-1.552776	0.042643	0.256574	-1.433332	0.533069	1.873739	-10.629013	0.000000	0.000000	22.342885	-3.427123	-7.014239	-16.855331	-13.155330	-19.497298	120.709012	74.478582	-13.815576	1.179952	14.646745	-3.744103	46.248776	82.072762	88.644885	1.908120	10.175909
3.833333	5.363734	-8.956124	97.412742	0.111882	1.085379	-0.062086	5.292780	3.024663	-1.980728	14.829690	0.258827	33.648101	-10.302910	0.000000	-0.968958	-2.859273	20.156490	0.185788	0.003243	30.642680	-12.862616	0.000000	0.085091	0.132826	-1.953878	0.158022	0.176659	-2.075995	0.139796	0.322953	-2.075995	0.097250	0.322953	-1.709643	0.079015	0.270859	-1.587526	0.048621	0.205748	-1.465408	0.607796	1.502556	-10.866881	0.000000	0.000000	22.184089	-3.413689	-7.478246	-16.454559	-12.810943	-18.797586	118.064125	71.200763	-12.758803	-1.174256	14.480012	-3.798627	45.926046	82.360228	88.974450	2.413527	10.891532
3.850000	5.218394	-8.995628	97.598984	0.111455	1.085278	-0.061357	5.159234	2.827728	-2.624034	14.526564	0.253536	33.537356	-9.986389	0.000000	-0.955471	-2.694488	20.551733	0.170976	0.002984	30.298265	-13.280957	0.000000	0.096257	0.100896	-1.973790	0.178758	0.134192	-2.097152	0.158140	0.245318	-2.097152	0.110012	0.245318	-1.727066	0.089384	0.205747	-1.603704	0.055001	0.156288	-1.480343	0.687551	1.141355	-10.977628	0.000000	0.000000	22.054213	-3.332404	-7.800338	-16.149738	-12.151876	-18.405685	115.624518	68.103736	-10.961628	-3.352710	14.396321	-3.912835	45.595295	82.717754	89.319783	2.761778	11.453376
3.866667	5.072290	-9.041485	97.720107	0.111116	1.085201	-0.060662	5.023530	2.635256	-3.245223	14.207215	0.247963	33.399525	-9.634827	0.000000	-0.925642	-2.522287	20.709786	0.191488	0.003342	29.982477	-13.496182	0.000000	0.107363	0.071340	-1.977894	0.199383	0.094883	-2.101512	0.176386	0.173457	-2.101512	0.122705	0.173457	-1.730657	0.099697	0.145477	-1.607039	0.061347	0.110506	-1.483421	0.766882	0.807016	-11.000454	0.000000	0.000000	21.941997	-3.186134	-7.962857	-15.939398	-11.266674	-18.255018	113.486388	65.471335	-8.791638	-5.210020	14.410306	-4.086719	45.264757	83.143605	89.462594	2.866742	11.873825
3.883333	4.926927	-9.093301	97.714979	0.110924	1.085152	-0.060024	4.899932	2.452693	-3.770930	13.891677	0.242456	33.254083	-9.241148	0.000000	-0.894367	-2.347734	20.406176	0.228843	0.003994	29.739390	-13.291893	0.000000	0.117970	0.044966	-1.958268	0.219083	0.059805	-2.080659	0.193814	0.109330	-2.080659	0.134828	0.109330	-1.713484	0.109547	0.091694	-1.591092	0.067408	0.069652	-1.468701	0.842651	0.508663	-10.891297	0.000000	0.000000	21.844693	-3.001557	-7.976695	-15.802654	-10.239811	-18.353310	111.682537	63.360498	-6.123169	-6.602523	14.517725	-4.319252	44.926710	83.656082	89.263879	2.704625	12.199152
3.900000	4.791989	-9.151236	97.588695	0.110847	1.085137	-0.059431	4.802299	2.291934	-4.143820	13.600225	0.237369	33.098033	-8.875322	0.000000	-0.865383	-2.176942	19.751573	0.271651	0.004741	29.541728	-12.811870	0.000000	0.128002	0.023001	-1.913241	0.237713	0.030591	-2.032818	0.210295	0.055924	-2.032818	0.146294	0.055924	-1.674086	0.118863	0.046903	-1.554508	0.073140	0.035628	-1.434930	0.914306	0.260187	-10.640871	0.000000	0.000000	21.757056	-2.792318	-7.885924	-15.759830	-9.172663	-18.667943	110.227791	61.905364	-3.166861	-7.523918	14.807128	-4.621015	44.743469	84.212864	88.579449	2.068900	12.312978
3.916667	4.673294	-9.205412	97.399842	0.110846	1.085140	-0.058908	4.719225	2.151908	-4.437076	13.331041	0.232671	32.952912	-8.508345	0.000000	-0.848446	-2.015906	19.093891	0.309346	0.005399	29.314218	-12.459103	0.000000	0.136359	0.005983	-1.866258	0.253232	0.007958	-1.982899	0.224024	0.014547	-1.982899	0.155845	0.014547	-1.632975	0.126623	0.012201	-1.516334	0.077916	0.009268	-1.399693	0.973998	0.067682	-10.379565	0.000000	0.000000	21.679893	-2.533688	-7.633008	-15.801166	-8.214585	-18.888986	109.141755	61.196546	-0.839339	-8.015266	15.226512	-4.993823	44.540304	84.854735	87.450737	1.374778	12.444117
3.933333	4.574598	-9.258947	97.097407	0.110966	1.085146	-0.058449	4.670177	2.041233	-4.572207	13.111693	0.228842	32.821141	-8.172398	0.000000	-0.842542	-1.870816	18.247902	0.348785	0.006087	29.116968	-12.037011	0.000000	0.143567	-0.005272	-1.804352	0.266619	-0.007011	-1.917124	0.235867	-0.012817	-1.917124	0.164083	-0.012817	-1.578808	0.133317	-0.010750	-1.466036	0.082034	-0.008166	-1.353264	1.025488	-0.059632	-10.035266	0.000000	0.000000	21.629124	-2.253704	-7.241523	-15.956343	-7.400868	-19.120575	108.401595	61.222256	1.134733	-8.059380	15.831394	-5.431521	44.464245	85.521711	85.870440	0.297050	12.374635
3.950000	4.501895	-9.307020	96.676442	0.111220	1.085130	-0.058076	4.650452	1.969723	-4.515079	12.946718	0.225963	32.691121	-7.911250	0.000000	-0.848563	-1.748799	17.194728	0.401519	0.007008	28.989707	-11.515007	0.000000	0.149116	-0.009936	-1.718758	0.276923	-0.013215	-1.826180	0.244982	-0.024158	-1.826180	0.170424	-0.024158	-1.503913	0.138469	-0.020261	-1.396490	0.085205	-0.015391	-1.289068	1.065118	-0.112395	-9.559214	0.000000	0.000000	21.645375	-1.962107	-6.712923	-16.279307	-6.731070	-19.419317	107.984292	62.029588	2.710578	-7.862190	16.660172	-5.918372	44.553315	86.166261	84.276003	-1.103069	12.038829
3.966667	4.449475	-9.353474	96.174656	0.111517	1.085101	-0.057732	4.675730	1.919979	-4.339320	12.857328	0.224403	32.561775	-7.700511	0.000000	-0.857492	-1.642468	16.166943	0.458988	0.008011	28.878811	-11.124991	0.000000	0.153371	-0.009310	-1.625346	0.284826	-0.012382	-1.726930	0.251974	-0.022635	-1.726930	0.175288	-0.022635	-1.422178	0.142421	-0.018984	-1.320594	0.087636	-0.014421	-1.219010	1.095516	-0.105312	-9.039687	0.000000	0.000000	21.696651	-1.689853	-6.137305	-16.726186	-6.329680	-19.567768	107.847150	63.507388	3.287793	-7.499714	17.586346	-6.381337	44.570878	86.762457	82.864522	-2.573689	11.450091
